<svg version="1.0" xmlns="http://www.w3.org/2000/svg" width="1706.667" height="1706.667" viewBox="0 0 1280 1280"><path d="M547.5 339.8c-1.1.2-2.5.8-3.1 1.3-.6.5-3.7 1.1-6.9 1.3-10.1.9-19 1.8-19.6 2.2-.3.1-4.1.6-8.5.9-4.3.4-8.6 1.3-9.4 2-.8.7-4.5 1.5-8.2 1.9-5.4.5-30.9 5.2-39 7.2-1 .2-2.6.6-3.5.8-1 .2-4.4 1.2-7.7 2.1-3.2.9-6.4 1.8-7 1.9-4.3.8-40 12.7-61.6 20.6-22.9 8.4-68.3 29.3-89.5 41.3-12.1 6.9-23.9 13.9-26.6 15.8-1.5 1-3 1.9-3.3 1.9-1 0-21 13.4-21.4 14.2-.2.5-.9.8-1.6.8-.7 0-2.3 1.1-3.6 2.5-1.3 1.4-2.6 2.3-2.8 2-.7-.7-6.3 3.5-5.8 4.4.3.4-.9 1.6-2.7 2.6-6.5 3.6-13.3 8.5-18.7 13-15.1 13-19.4 16.8-29.9 27-14.3 13.9-24.7 25.6-31.7 35.9-3 4.5-8.1 11.5-11.3 15.6-5.6 7.1-8.9 12.7-12.6 21.2-.8 2-2 4-2.5 4.3-.6.3-1 1.5-1 2.6 0 1-.4 1.9-.8 1.9-1 0-4 6.6-5.4 11.8-.5 2-2.2 6.3-3.8 9.4-1.5 3.2-3.3 9-4 13-.6 4-1.6 8.2-2.2 9.3-1.5 2.8-1.7 38.5-.2 40 .6.6 1.4 3.1 1.7 5.5 1.2 9.8 7.1 24.7 13.6 34.4 1.4 2.1 3.3 4.9 4.1 6.2.8 1.2 3.2 5.1 5.3 8.6 2.1 3.4 7.5 12.1 12.2 19.3 4.6 7.1 12.1 18.8 16.6 26 12 18.9 15.1 22.9 26.3 34 14.4 14.4 32.9 26.8 50.6 33.9 3.6 1.5 7.4 3.1 8.5 3.6 3.2 1.5 14.3 4.9 18.3 5.6 2 .4 4 1.2 4.4 1.7.3.6 1.7 1.2 3 1.4 1.3.1 5.3 1 9 1.9 3.7.9 8.3 1.7 10.2 1.8 1.9.2 4.1.8 4.9 1.5.8.6 3.2 1 5.3.8 2.6-.2 4.7.3 6.2 1.4 1.3 1 3.3 1.6 4.5 1.3 8.2-1.6 11.7-1.6 12.3-.1.8 2.2 57.8 2.1 60.1-.1 1.2-1.3 2.7-1.4 8.5-.6 5.5.8 7.6.7 9.7-.4 2.7-1.4 3.3-1.5 13.6-2.6 3.3-.4 6.7-.9 7.5-1.1.8-.2 10.1-2 20.5-4 27.3-5 38.2-7.8 61.1-15.4 8.2-2.8 17.8-5.7 21.4-6.5l6.5-1.5 4 3.8c7.4 7 12 10.9 16.5 14.2 2.4 1.8 4.9 3.6 5.5 4.1 4.3 3.7 26.3 18.5 36.5 24.6 14.1 8.3 32.5 17.7 41.5 21.1 3.3 1.2 6.8 2.7 7.7 3.2 1 .5 2.4.9 3.2.9.7 0 2.4.8 3.7 1.8 6.1 4.8 54.6 19.7 79.7 24.6 7.3 1.4 14.5 2.6 16 2.6s3.6.6 4.7 1.4c1.1.7 4.9 1.6 8.5 2 3.6.4 7 .8 7.5.8.6.1 2.6.5 4.5 1 1.9.4 7.8 1.1 13 1.4 5.2.4 9.7 1 9.8 1.5.2.5 5.1.9 10.8.9 6.5 0 10.4.4 10.4 1 0 1.3 67 1.2 68.6-.1.6-.5 3.5-1.1 6.5-1.4 11.6-1.1 17.5-1.7 19.9-2 1.4-.2 4.8-.7 7.5-1 6.3-.7 13-1.8 20.5-3.4 6.3-1.3 8.8-1.9 11.1-2.6 1.1-.4 4.1-.8 6.7-.9 4.6-.3 15.1-2.9 34.2-8.6 17.6-5.2 35.4-12.1 50.6-19.6 8.3-4.1 15.6-7.4 16.1-7.4.6 0 2.8-1.3 4.9-2.8 2.1-1.6 8.9-5.7 14.9-9.2 13.8-7.9 21.9-13.6 28.1-19.8 2.7-2.6 6.5-5.8 8.5-7 2-1.2 4.9-3.8 6.4-5.8 1.5-1.9 4.8-5.6 7.3-8.2 10.5-10.6 23.8-28.9 25.7-35.3.4-1.3 1.5-3.1 2.6-3.9 2.1-1.7 12.8-26.6 15.8-36.7 1.9-6.5 3.3-12.5 3.4-15 0-.7.6-1.4 1.4-1.7.7-.3 1.3-1.3 1.3-2.3 0-2 5-20.1 9.1-33 9.6-30.1 12.8-51.5 10.6-69.3-1.8-13.5-2.9-19.7-5.7-30.4-4.6-17.8-9.3-27.8-19.4-41-2-2.6-3.6-5.6-3.6-6.7 0-3.1-1.8-6-6.9-10.9-2.5-2.5-6.6-7-9-10-2.5-3-9.7-10.7-16-17-33.6-33.6-75-58.4-136.1-81.7-8-3.1-17.2-6.3-20.5-7.2-3.3-.9-6.6-2.2-7.3-2.9-.8-.7-1.8-1-2.2-.7-.5.3-3.5-.2-6.7-1.1-3.2-.9-6-1.7-6.3-1.7-.3 0-1.6-.4-3-.9-1.4-.6-4.3-1.5-6.5-1.9-2.2-.5-4.4-1.1-5-1.3-3.1-.9-9.3-2.6-11.5-3-1.4-.3-5.9-1.2-10-2s-8.8-1.6-10.5-1.9c-1.6-.3-4.6-.8-6.5-1.1-1.9-.4-5.3-.8-7.6-1-2.2-.1-4.7-.7-5.5-1.2-1.6-1-1.4-1-10.4-1.8-3.8-.4-9.9-1.2-13.5-1.7-3.6-.5-12.1-1.2-19-1.5-6.9-.4-12.8-1.1-13.1-1.6-.3-.5-5.9-.8-12.5-.7-6.5.1-18 .1-25.5 0-7.4-.1-15.8.1-18.6.5-6.9.8-10.3-1-18.3-9.8-14.2-15.7-25.6-25.2-37.3-31.3-5.3-2.7-9.7-5.3-9.7-5.8 0-.4-1.2-1.2-2.7-1.8-8.2-3.2-22.8-8.3-30.3-10.5-8-2.4-9.6-2.8-14.5-3.8-1.1-.2-3.8-.9-6-1.4-3.6-1-8.6-1.8-17-2.8-1.6-.2-6.6-.6-10.9-.9-4.4-.2-8.2-.9-8.5-1.4-.3-.5-3.5-.9-7.1-1-7.8 0-27.5 0-38.5.1-4.4.1-9.3-.1-11-.4-1.6-.3-3.9-.3-5 0zm-.5 122.4c3.1.8 1.3 2.5-10.4 9.7-18.4 11.3-31.2 21.4-44.7 35.6-23.9 25.1-39.1 52.8-46.4 84.3-2.7 11.3-3.6 29.4-2.1 41.7.3 2.7.8 7.5 1.1 10.5.7 6.1 1 9.1 2 16.5 1 7.3 1.5 12.9 1.9 22.3l.4 8.4-3.1 1.8c-1.8 1.1-3.5 2-3.9 2-.4.1-2.2.6-4 1.1-1.8.6-4 1.2-4.8 1.4-6.4 1.4-15.4 3.9-20 5.5-10.5 3.6-36.6 9.8-48 11.4-1.9.3-4.6.7-6 1-3.8.7-12.1 1.8-15.5 2.2-1.6.1-6.1.7-10 1.3-3.8.5-9.2 1.3-12 1.6-2.7.3-7 .9-9.5 1.3-6.1.9-49.7.8-59-.2-14.1-1.5-15.1-1.6-27.5-4.3-3.8-.8-7.9-1.6-9-1.9-3.3-.7-14.7-4.4-20.3-6.6l-5.3-2.1.6-4.6c.4-2.5.8-5.8 1-7.3.2-1.5.9-4.6 1.6-7 .7-2.4 1.3-4.8 1.4-5.3.2-.6 1.7-4.7 3.4-9 5.6-14.1 16.8-33.6 24.8-43.5.7-.8 4-5.3 7.5-9.9 6.1-8.3 26.2-29.4 36.4-38.2 2.8-2.4 6.4-5.5 8-6.9 3.7-3.3 25.4-20 28.4-22 1.2-.8 3.5-2.5 5-3.8 1.5-1.2 3.1-2.2 3.4-2.2.4 0 1.2-.5 1.9-1 1.1-.9 11.7-7.9 16.2-10.7 18.2-11.2 49.7-28 60.5-32.2 1.9-.8 6-2.5 9-3.9 3-1.3 7.8-3.3 10.5-4.4 2.8-1.1 6.4-2.5 8-3.3 4.2-1.8 6.8-2.8 8.5-3.1.8-.2 2.3-.7 3.5-1.3 2.5-1.3 16.3-6.1 19-6.7 1.1-.2 3.1-.8 4.5-1.3 1.4-.6 4.5-1.6 7-2.2 2.5-.7 5-1.4 5.5-1.5 4.9-1.5 24.7-6.4 27.2-6.9 1.8-.3 6.1-1.2 9.5-2 3.5-.8 7.9-1.7 9.8-2 1.9-.3 4.6-.7 6-1 1.4-.3 4.7-.7 7.5-1.1 2.7-.3 5.1-.6 5.2-.8.4-.4 13.5.1 15.3.6zm258.5 66.2c1.7.2 4.4.8 6 1.3 1.7.6 3.9.8 5 .5 3.2-.8 8.5-.7 15.5.2 3.6.4 8.1.9 10 1.1 6 .6 14.1 1.6 16.9 2.1 12.3 2.2 58.8 13.3 63.1 15.1.8.3 1.7.7 2 .8.3.1 1.4.5 2.5.9 1.1.5 5.6 2.2 10 3.8 23.2 8.6 61 26.5 66.6 31.4.8.8 1.9 1.4 2.3 1.4.4 0 4.2 2.3 8.4 5.2 33.1 22.2 58.3 48.8 71.6 75.5 4.3 8.5 10.2 25.9 11.1 32.4l.6 4.6-6.3 5.4c-3.5 3-7 6.3-7.8 7.4-12.1 16.4-48.1 37.8-85.5 50.8-18 6.3-43.3 13.2-60 16.4-4.4.8-9.1 1.7-10.5 2-10.3 2-17.4 2.8-36 3.8-2.5.1-7.2.5-10.5.9s-8 .9-10.5 1.2c-4.9.6-48.7.5-53.5 0-1.6-.2-4.4-.7-6.2-1-1.7-.3-8.5-.8-15-1.1-12.8-.4-18.7-1-35.5-3-15.1-1.9-36.1-6.4-64.3-14-18.5-4.9-38.5-11.9-42.3-14.8-1-.8-.8-1.4 1-2.8 1.3-.9 7-5.4 12.8-9.9 35.8-27.7 62-53.9 81.4-81.5 3.1-4.4 6.1-8.5 6.6-9.2.6-.7 1-1.5 1-1.9 0-.3.8-1.8 1.9-3.2 4.5-6.5 17.5-32.2 20.6-40.7.4-1.1 1.5-5.4 2.5-9.5s2.7-10.9 3.8-15.1c4-14.8 7-42.1 5.1-45.9-.4-.8-1-3.6-1.4-6.2-.9-6.2-1.2-6.1 17-4.4zM683 537.8c0 .7-5.6 8.9-7 10.2-.3.3-2.7 3.2-5.5 6.5-7.4 8.9-22 23-34.5 33.5-2.9 2.5-5.8 5-6.4 5.5-2.9 2.7-14 11.4-18.8 14.7-2.9 2-8.8 6.2-13.1 9.2-4.3 3.1-8 5.6-8.3 5.6-.2 0-5 3.1-10.6 6.8-12 8-14.6 9.5-25.3 15.2-10.9 5.8-11.9 6.4-12.5 7-.3.3-5 2.8-10.5 5.7-9.6 4.9-10.2 5-12.1 3.5-4.1-3.5-4.6-4.7-3.4-9.4.7-2.4 3.3-8.5 5.8-13.7 15.6-32.2 51.3-61.5 100.6-82.6 25.4-10.8 61.6-21.2 61.6-17.7z"/></svg>