<?xml version="1.0" standalone="no"?>
<!DOCTYPE svg PUBLIC "-//W3C//DTD SVG 20010904//EN"
 "http://www.w3.org/TR/2001/REC-SVG-20010904/DTD/svg10.dtd">
<svg version="1.0" xmlns="http://www.w3.org/2000/svg"
 width="1280.000000pt" height="1280.000000pt" viewBox="0 0 1280.000000 1280.000000"
 preserveAspectRatio="xMidYMid meet">
<metadata>
Created by potrace 1.14, written by Peter Selinger 2001-2017
</metadata>
<g transform="translate(0.000000,1280.000000) scale(0.100000,-0.100000)"
fill="#000000" stroke="none">
<path d="M5475 9402 c-11 -2 -25 -8 -31 -13 -6 -5 -37 -11 -69 -13 -101 -9
-190 -18 -196 -22 -3 -1 -41 -6 -85 -9 -43 -4 -86 -13 -94 -20 -8 -7 -45 -15
-82 -19 -54 -5 -309 -52 -390 -72 -10 -2 -26 -6 -35 -8 -10 -2 -44 -12 -77
-21 -32 -9 -64 -18 -70 -19 -43 -8 -400 -127 -616 -206 -229 -84 -683 -293
-895 -413 -121 -69 -239 -139 -266 -158 -15 -10 -30 -19 -33 -19 -10 0 -210
-134 -214 -142 -2 -5 -9 -8 -16 -8 -7 0 -23 -11 -36 -25 -13 -14 -26 -23 -28
-20 -7 7 -63 -35 -58 -44 3 -4 -9 -16 -27 -26 -65 -36 -133 -85 -187 -130
-151 -130 -194 -168 -299 -270 -143 -139 -247 -256 -317 -359 -30 -45 -81
-115 -113 -156 -56 -71 -89 -127 -126 -212 -8 -20 -20 -40 -25 -43 -6 -3 -10
-15 -10 -26 0 -10 -4 -19 -8 -19 -10 0 -40 -66 -54 -118 -5 -20 -22 -63 -38
-94 -15 -32 -33 -90 -40 -130 -6 -40 -16 -82 -22 -93 -15 -28 -17 -385 -2
-400 6 -6 14 -31 17 -55 12 -98 71 -247 136 -344 14 -21 33 -49 41 -62 8 -12
32 -51 53 -86 21 -34 75 -121 122 -193 46 -71 121 -188 166 -260 120 -189 151
-229 263 -340 144 -144 329 -268 506 -339 36 -15 74 -31 85 -36 32 -15 143
-49 183 -56 20 -4 40 -12 44 -17 3 -6 17 -12 30 -14 13 -1 53 -10 90 -19 37
-9 83 -17 102 -18 19 -2 41 -8 49 -15 8 -6 32 -10 53 -8 26 2 47 -3 62 -14 13
-10 33 -16 45 -13 82 16 117 16 123 1 8 -22 578 -21 601 1 12 13 27 14 85 6
55 -8 76 -7 97 4 27 14 33 15 136 26 33 4 67 9 75 11 8 2 101 20 205 40 273
50 382 78 611 154 82 28 178 57 214 65 l65 15 40 -38 c74 -70 120 -109 165
-142 24 -18 49 -36 55 -41 43 -37 263 -185 365 -246 141 -83 325 -177 415
-211 33 -12 68 -27 77 -32 10 -5 24 -9 32 -9 7 0 24 -8 37 -18 61 -48 546
-197 797 -246 73 -14 145 -26 160 -26 15 0 36 -6 47 -14 11 -7 49 -16 85 -20
36 -4 70 -8 75 -8 6 -1 26 -5 45 -10 19 -4 78 -11 130 -14 52 -4 97 -10 98
-15 2 -5 51 -9 108 -9 65 0 104 -4 104 -10 0 -13 670 -12 686 1 6 5 35 11 65
14 116 11 175 17 199 20 14 2 48 7 75 10 63 7 130 18 205 34 63 13 88 19 111
26 11 4 41 8 67 9 46 3 151 29 342 86 176 52 354 121 506 196 83 41 156 74
161 74 6 0 28 13 49 28 21 16 89 57 149 92 138 79 219 136 281 198 27 26 65
58 85 70 20 12 49 38 64 58 15 19 48 56 73 82 105 106 238 289 257 353 4 13
15 31 26 39 21 17 128 266 158 367 19 65 33 125 34 150 0 7 6 14 14 17 7 3 13
13 13 23 0 20 50 201 91 330 96 301 128 515 106 693 -18 135 -29 197 -57 304
-46 178 -93 278 -194 410 -20 26 -36 56 -36 67 0 31 -18 60 -69 109 -25 25
-66 70 -90 100 -25 30 -97 107 -160 170 -336 336 -750 584 -1361 817 -80 31
-172 63 -205 72 -33 9 -66 22 -73 29 -8 7 -18 10 -22 7 -5 -3 -35 2 -67 11
-32 9 -60 17 -63 17 -3 0 -16 4 -30 9 -14 6 -43 15 -65 19 -22 5 -44 11 -50
13 -31 9 -93 26 -115 30 -14 3 -59 12 -100 20 -41 8 -88 16 -105 19 -16 3 -46
8 -65 11 -19 4 -53 8 -76 10 -22 1 -47 7 -55 12 -16 10 -14 10 -104 18 -38 4
-99 12 -135 17 -36 5 -121 12 -190 15 -69 4 -128 11 -131 16 -3 5 -59 8 -125
7 -65 -1 -180 -1 -255 0 -74 1 -158 -1 -186 -5 -69 -8 -103 10 -183 98 -142
157 -256 252 -373 313 -53 27 -97 53 -97 58 0 4 -12 12 -27 18 -82 32 -228 83
-303 105 -80 24 -96 28 -145 38 -11 2 -38 9 -60 14 -36 10 -86 18 -170 28 -16
2 -66 6 -109 9 -44 2 -82 9 -85 14 -3 5 -35 9 -71 10 -78 0 -275 0 -385 -1
-44 -1 -93 1 -110 4 -16 3 -39 3 -50 0z m-5 -1224 c31 -8 13 -25 -104 -97
-184 -113 -312 -214 -447 -356 -239 -251 -391 -528 -464 -843 -27 -113 -36
-294 -21 -417 3 -27 8 -75 11 -105 7 -61 10 -91 20 -165 10 -73 15 -129 19
-223 l4 -84 -31 -18 c-18 -11 -35 -20 -39 -20 -4 -1 -22 -6 -40 -11 -18 -6
-40 -12 -48 -14 -64 -14 -154 -39 -200 -55 -105 -36 -366 -98 -480 -114 -19
-3 -46 -7 -60 -10 -38 -7 -121 -18 -155 -22 -16 -1 -61 -7 -100 -13 -38 -5
-92 -13 -120 -16 -27 -3 -70 -9 -95 -13 -61 -9 -497 -8 -590 2 -141 15 -151
16 -275 43 -38 8 -79 16 -90 19 -33 7 -147 44 -203 66 l-53 21 6 46 c4 25 8
58 10 73 2 15 9 46 16 70 7 24 13 48 14 53 2 6 17 47 34 90 56 141 168 336
248 435 7 8 40 53 75 99 61 83 262 294 364 382 28 24 64 55 80 69 37 33 254
200 284 220 12 8 35 25 50 38 15 12 31 22 34 22 4 0 12 5 19 10 11 9 117 79
162 107 182 112 497 280 605 322 19 8 60 25 90 39 30 13 78 33 105 44 28 11
64 25 80 33 42 18 68 28 85 31 8 2 23 7 35 13 25 13 163 61 190 67 11 2 31 8
45 13 14 6 45 16 70 22 25 7 50 14 55 15 49 15 247 64 272 69 18 3 61 12 95
20 35 8 79 17 98 20 19 3 46 7 60 10 14 3 47 7 75 11 27 3 51 6 52 8 4 4 135
-1 153 -6z m2585 -662 c17 -2 44 -8 60 -13 17 -6 39 -8 50 -5 32 8 85 7 155
-2 36 -4 81 -9 100 -11 60 -6 141 -16 169 -21 123 -22 588 -133 631 -151 8 -3
17 -7 20 -8 3 -1 14 -5 25 -9 11 -5 56 -22 100 -38 232 -86 610 -265 666 -314
8 -8 19 -14 23 -14 4 0 42 -23 84 -52 331 -222 583 -488 716 -755 43 -85 102
-259 111 -324 l6 -46 -63 -54 c-35 -30 -70 -63 -78 -74 -121 -164 -481 -378
-855 -508 -180 -63 -433 -132 -600 -164 -44 -8 -91 -17 -105 -20 -103 -20
-174 -28 -360 -38 -25 -1 -72 -5 -105 -9 -33 -4 -80 -9 -105 -12 -49 -6 -487
-5 -535 0 -16 2 -44 7 -62 10 -17 3 -85 8 -150 11 -128 4 -187 10 -355 30
-151 19 -361 64 -643 140 -185 49 -385 119 -423 148 -10 8 -8 14 10 28 13 9
70 54 128 99 358 277 620 539 814 815 31 44 61 85 66 92 6 7 10 15 10 19 0 3
8 18 19 32 45 65 175 322 206 407 4 11 15 54 25 95 10 41 27 109 38 151 40
148 70 421 51 459 -4 8 -10 36 -14 62 -9 62 -12 61 170 44z m-1225 -94 c0 -7
-56 -89 -70 -102 -3 -3 -27 -32 -55 -65 -74 -89 -220 -230 -345 -335 -29 -25
-58 -50 -64 -55 -29 -27 -140 -114 -188 -147 -29 -20 -88 -62 -131 -92 -43
-31 -80 -56 -83 -56 -2 0 -50 -31 -106 -68 -120 -80 -146 -95 -253 -152 -109
-58 -119 -64 -125 -70 -3 -3 -50 -28 -105 -57 -96 -49 -102 -50 -121 -35 -41
35 -46 47 -34 94 7 24 33 85 58 137 156 322 513 615 1006 826 254 108 616 212
616 177z"/>
</g>
</svg>
